<svg xmlns="http://www.w3.org/2000/svg" viewBox="0 0 50 50" width="50" height="50">
	<defs>
		<linearGradient id="grd1" gradientUnits="userSpaceOnUse"  x1="7.375" y1="3" x2="42.618" y2="45">
			<stop offset="0" stop-color="#eb2525"  />
			<stop offset="1" stop-color="#e07f7f"  />
		</linearGradient>
	</defs>
	<style>
		tspan { white-space:pre }
		.shp0 { fill: url(#grd1) } 
	</style>
	<path id="Layer" fill-rule="evenodd" class="shp0" d="M25.53 3C28.24 3 31 8.24 31 12C31 13.62 29.98 17.07 29.38 19L44 19C46.21 19 48 20.79 48 23C48 24.45 47.22 25.74 46.06 26.44C46.65 27.13 47 28.02 47 29C47 30.45 46.22 31.74 45.06 32.44C45.65 33.13 46 34.02 46 35C46 36.74 44.87 38.23 43.31 38.78C43.74 39.42 44 40.18 44 41C44 43.21 42.21 45 40 45L21 45C19.7 45 18.41 44.16 18 43L18 22L22 11.75L22 4C22 3.45 22.45 3 23 3L25.53 3ZM15 19C15.55 19 16 19.45 16 20L16 44C16 44.55 15.55 45 15 45L6 45C5.5 45 5.06 44.63 5 44.13L2 20.13C1.97 19.84 2.06 19.56 2.25 19.34C2.44 19.13 2.71 19 3 19L15 19ZM10 39.5C10 40.33 10.67 41 11.5 41C12.33 41 13 40.33 13 39.5C13 38.67 12.33 38 11.5 38C10.67 38 10 38.67 10 39.5Z" />
</svg>